<svg xmlns="http://www.w3.org/2000/svg" aria-hidden="true" style="position:absolute;width:0;height:0;overflow:hidden"><defs><symbol id="alarm" viewBox="0 0 32 32"><path d="M3.918 1.11C1.828 1.894.653 3.526.653 5.681c0 1.175.392 2.351.849 2.547.457.131 2.22-1.045 3.984-2.678 2.547-2.482 2.939-3.2 2.351-3.984-.849-.914-2.155-1.11-3.918-.457z"/><path d="M23.771 2.155c-.131.457 1.045 2.22 2.678 3.984 2.547 2.612 3.135 3.004 3.984 2.286 1.241-.98.784-4.18-.849-5.943-1.241-1.371-5.29-1.633-5.812-.327z"/><path d="M11.233 3.984c-3.135.914-7.118 5.224-8.033 8.555-.98 3.722-.327 8.098 1.763 11.167 1.241 1.829 1.502 2.743.98 3.265-.98.98-.914 2.416.196 2.416.457 0 1.241-.392 1.633-.914.718-.849 1.175-.849 3.461 0 3.331 1.175 5.551 1.175 8.882 0 2.286-.849 2.743-.849 3.461 0 .392.522 1.175.914 1.633.914 1.11 0 1.175-1.437.196-2.416-.588-.588-.392-1.241.522-2.612 6.139-8.62 1.175-19.984-9.012-20.767-1.959-.196-4.506 0-5.682.392zm9.665 2.743c7.902 4.18 7.576 15.543-.522 19.461-7.118 3.527-15.804-1.959-15.804-9.992 0-5.551 5.486-10.971 11.102-10.971 1.306 0 3.657.653 5.224 1.502z"/><path d="M13.714 13.388v4.898h3.592c2.743 0 3.592-.196 3.592-.98 0-.718-.718-.98-2.612-.98h-2.612v-3.918c0-3.069-.196-3.918-.98-3.918s-.98.98-.98 4.898z"/></symbol><symbol id="book" viewBox="0 0 32 32"><path d="M1.887 2.038c-.375.138-.9.644-1.081 1.038l-.15.331v10.969c0 10.637.006 10.975.119 11.275.15.394.538.813.944 1.025l.313.169 3.719.038c3.481.038 3.756.044 4.281.169 2.1.488 3.581 1.4 5.1 3.137l.412.469h.913l.413-.469c1.381-1.581 2.706-2.456 4.463-2.962 1.025-.3 1.163-.306 4.981-.344l3.656-.038.319-.169c.375-.2.738-.581.925-.981l.131-.288v-22l-.15-.325c-.194-.431-.7-.906-1.113-1.044-.288-.094-.669-.106-4.031-.087-3.575.025-3.731.025-4.387.163-1.9.4-3.594 1.25-5.056 2.544l-.613.544-.325-.306a11.026 11.026 0 0 0-5.338-2.781c-.65-.137-.8-.137-4.425-.156-3.237-.012-3.788 0-4.019.081zm7.926 1.924a8.881 8.881 0 0 1 4.581 2.419l.669.662v10.169c0 8.119-.019 10.163-.075 10.125a34.65 34.65 0 0 1-.425-.306c-1.231-.925-2.831-1.613-4.444-1.913-.656-.125-.975-.137-4.131-.163l-3.425-.031V3.799l3.362.031c2.756.025 3.45.05 3.887.131zm19.625 10.407v10.556l-3.419.031c-3.131.025-3.481.038-4.119.156-1.6.3-3.231.994-4.406 1.875-.225.169-.444.325-.481.35-.056.038-.075-2.269-.075-10.113V7.074l.475-.513c1.156-1.225 2.813-2.163 4.481-2.531.756-.169 1.469-.2 4.625-.212l2.919-.006v10.556z"/><path d="M6.088 8.694c-.263.075-.569.431-.625.719-.088.481.275 1.031.737 1.119.112.019 1.362.031 2.769.019l2.563-.019.206-.144a.964.964 0 0 0 .4-.813c0-.363-.181-.644-.512-.813-.275-.137-.3-.137-2.813-.131-1.394 0-2.619.031-2.725.063z"/><path d="M6.031 13.525a1.005 1.005 0 0 0-.563 1.1c.063.275.375.613.644.688.138.037 1.225.063 2.731.063 2.475 0 2.506 0 2.781-.144.65-.325.706-1.194.113-1.619l-.206-.144-2.656-.012c-2.112-.012-2.694 0-2.844.069z"/><path d="M5.919 18.387a.96.96 0 0 0-.294 1.363c.294.413.25.406 3.188.406 2.619 0 2.656 0 2.875-.137.606-.375.606-1.219 0-1.625-.206-.144-.206-.144-2.869-.144-2.619 0-2.669.006-2.9.137z"/><path d="M20.375 8.762a.943.943 0 0 0-.113 1.625l.206.144h2.731c2.656 0 2.731-.006 2.9-.131.319-.238.431-.444.431-.806s-.113-.569-.431-.806c-.169-.125-.256-.131-2.806-.15l-2.637-.019-.281.144z"/><path d="M20.4 13.525c-.55.244-.719 1.006-.337 1.494.275.35.413.363 3.262.344 2.519-.019 2.606-.025 2.775-.15.319-.238.431-.444.431-.806s-.113-.569-.431-.806c-.169-.125-.256-.131-2.837-.144-2.137-.012-2.706 0-2.863.069z"/><path d="M20.313 18.394c-.606.406-.6 1.269.012 1.637.2.119.319.125 2.863.125 2.938 0 2.894.006 3.188-.406.319-.45.163-1.131-.319-1.375-.225-.119-.375-.125-2.887-.125-2.644 0-2.65 0-2.856.144z"/></symbol><symbol id="computer" viewBox="0 0 32 32"><path d="M5.531 4.056c-.563.138-1.075.563-1.344 1.1l-.156.313-.019 8.344c-.013 6.456 0 8.406.063 8.625.1.363.6.881.963.988.188.056 1.25.075 4.013.075h3.75l-.744 1.856c-.406 1.025-.744 1.938-.744 2.038 0 .244.094.4.313.512.275.144 8.475.144 8.75 0a.52.52 0 0 0 .313-.512c0-.1-.337-1.012-.744-2.038l-.744-1.856h3.762c4.306 0 4.156.019 4.619-.5.163-.181.306-.419.35-.575.056-.2.069-2.337.056-8.613l-.019-8.344-.212-.394c-.231-.431-.494-.681-.944-.9l-.281-.144-10.406-.013c-5.725 0-10.488.013-10.594.037zM25.5 12.5v6h-19v-12h19v6zm-8.988 7.725c.481.244.675.894.413 1.4-.2.394-.481.563-.925.563s-.725-.169-.925-.563c-.481-.925.494-1.869 1.438-1.4z"/><path d="M19.669 8.95c-.094.044-1.2 1.094-2.456 2.325l-2.287 2.244-.819-.813c-.456-.45-.894-.85-.969-.894-.313-.156-.806-.075-1.1.181s-.387.819-.2 1.169c.05.1.762.85 1.588 1.669l1.494 1.494 3.006-2.95c2.269-2.225 3.025-3 3.081-3.169a.983.983 0 0 0-.863-1.306 1.103 1.103 0 0 0-.475.05z"/></symbol><symbol id="facebook" viewBox="0 0 32 32"><path d="M19 6h5V0h-5c-3.86 0-7 3.14-7 7v3H8v6h4v16h6V16h5l1-6h-6V7c0-.542.458-1 1-1z"/></symbol><symbol id="framing" viewBox="0 0 32 32"><path d="M0 16v16h32V0H0v16zm29.5 0v13.5h-27v-27h27V16z"/><path d="M5 8.125v3.125h2.5V7.5h3.75V5H5v3.125z"/><path d="M20.75 6.25V7.5h3.75v3.75H27V5h-6.25v1.25z"/><path d="M5 23.875V27h6.25v-2.5H7.5v-3.75H5v3.125z"/><path d="M24.5 22.625V24.5h-3.75V27H27v-6.25h-2.5v1.875z"/></symbol><symbol id="home" viewBox="0 0 32 32"><path d="M8.131 8.988 0 16.15l.15.188c.075.106.294.288.481.4.319.2.362.206.838.188.431-.025.563-.056.944-.256.331-.175 2.056-1.6 7.125-5.887 3.675-3.112 6.7-5.656 6.725-5.656s2.813 2.481 6.194 5.512c3.488 3.125 6.313 5.613 6.519 5.738.725.438 1.569.606 2.094.425.319-.106.65-.331.8-.538l.131-.188-5.2-4.706-7.869-7.131-2.669-2.413-8.131 7.162z"/><path d="M25.063 6.969v1.9l1.531 1.3c.844.713 1.563 1.306 1.594 1.319.038.012.063-1.181.063-3.2V5.063h-3.188v1.906z"/><path d="m10.262 12.113-5.881 4.919v4.3c-.006 4.738-.019 4.588.375 4.725.144.05 2.131.069 6.806.069h6.606l.038-1.137c.025-.619.044-2.356.044-3.856 0-2.594.006-2.738.125-2.925.25-.413.319-.425 2.406-.425 1.031 0 1.981.025 2.106.05.288.063.6.319.712.587.069.163.087.925.087 3.925v3.719h1.5c1.669 0 1.781-.025 1.981-.394.106-.188.113-.519.131-4.387l.019-4.188-5.512-4.906a929.13 929.13 0 0 0-5.587-4.95c-.05-.031-2.275 1.794-5.956 4.875zm2.976 5.925c.137.094.137.106.137 1.869 0 1.694-.006 1.781-.119 1.844-.188.094-4.831.087-4.931-.012-.056-.056-.075-.544-.075-1.813 0-1.656.006-1.744.125-1.863s.206-.125 2.425-.125c1.975 0 2.319.012 2.438.1z"/></symbol><symbol id="instagram" viewBox="0 0 32 32"><path d="M8 5C6.355 5 5 6.355 5 8v16c0 1.645 1.355 3 3 3h16c1.645 0 3-1.355 3-3V8c0-1.645-1.355-3-3-3zm13 3h3v3h-3zm-5 4c2.223 0 4 1.777 4 4s-1.777 4-4 4-4-1.777-4-4 1.777-4 4-4zm-9 2h3.344A5.952 5.952 0 0 0 10 16c0 3.301 2.699 6 6 6s6-2.699 6-6c0-.699-.121-1.375-.344-2H25v10c0 .566-.434 1-1 1H8c-.566 0-1-.434-1-1z"/></symbol><symbol id="pinterest" viewBox="0 0 32 32"><path d="M16.75 0C8.017 0 3.613 6.261 3.613 11.482c0 3.161 1.197 5.973 3.763 7.022.421.172.799.006.921-.46.085-.323.285-1.136.375-1.475.123-.461.075-.623-.264-1.024-.74-.873-1.213-2.003-1.213-3.605 0-4.645 3.475-8.803 9.05-8.803 4.935 0 7.647 3.016 7.647 7.044 0 5.3-2.345 9.772-5.827 9.772-1.923 0-3.362-1.59-2.901-3.541.552-2.328 1.622-4.842 1.622-6.522 0-1.504-.807-2.76-2.479-2.76-1.966 0-3.545 2.034-3.545 4.757 0 1.735.586 2.909.586 2.909L8.984 24.812c-.703 2.972-.105 6.616-.055 6.984.029.218.309.27.436.105.182-.237 2.523-3.127 3.319-6.015.225-.818 1.292-5.052 1.292-5.052.639 1.218 2.505 2.291 4.49 2.291 5.908 0 9.918-5.387 9.918-12.597 0-5.452-4.618-10.53-11.637-10.53z"/></symbol><symbol id="search" viewBox="0 0 32 32"><path d="m31.008 27.231-7.58-6.447c-.784-.705-1.622-1.029-2.299-.998a11.954 11.954 0 0 0 2.87-7.787c0-6.627-5.373-12-12-12s-12 5.373-12 12 5.373 12 12 12c2.972 0 5.691-1.081 7.787-2.87-.031.677.293 1.515.998 2.299l6.447 7.58c1.104 1.226 2.907 1.33 4.007.23s.997-2.903-.23-4.007zM12 20a8 8 0 1 1 0-16 8 8 0 0 1 0 16z"/></symbol><symbol id="shopping" viewBox="0 0 32 32"><path d="M1.015 4.006C.469 4.006 0 3.538 0 2.965 0 2.419.468 1.95 1.015 1.95h2.758c.937.026 1.769.208 2.472.65.78.494 1.353 1.249 1.665 2.367 0 .026 0 .052.026.078l.26 1.041H30.96c.572 0 1.015.468 1.015 1.015 0 .104-.026.208-.052.312l-2.654 10.693c-.104.468-.52.78-.989.78H11.63c.364 1.353.728 2.081 1.223 2.419.598.39 1.639.416 3.382.39H28.02c.572 0 1.015.468 1.015 1.015 0 .572-.468 1.015-1.015 1.015H16.261c-2.159.026-3.486-.026-4.553-.728-1.093-.728-1.665-1.977-2.237-4.241L5.985 5.566c0-.026 0-.026-.026-.052-.156-.572-.416-.963-.78-1.171-.364-.234-.859-.338-1.431-.338H1.016zm23.961 20.918a2.499 2.499 0 1 1-.002 4.998 2.499 2.499 0 0 1 .002-4.998zm-10.953 0a2.499 2.499 0 1 1-.002 4.998 2.499 2.499 0 0 1 .002-4.998zM8.767 8.117l2.315 8.715h16.416l2.159-8.715H8.766z"/></symbol><symbol id="status" viewBox="0 0 32 32"><path d="M9.781 1.781c-4.806.538-7.225 2.819-7.944 7.5-.113.694-.119 1.219-.119 6.719 0 5.431.012 6.031.113 6.688.713 4.587 2.931 6.8 7.512 7.481.681.1 1.3.113 6.688.113 6.494 0 6.469 0 8.025-.381 3.306-.819 5.231-2.85 5.938-6.275.306-1.462.325-2.025.3-8.081-.025-6.181-.019-6.063-.419-7.681-.769-3.094-2.694-5-5.813-5.763-1.556-.375-1.45-.375-7.75-.387-4.506-.012-5.95.006-6.531.069zm12.875 2.05c3.119.556 4.644 1.875 5.313 4.594.306 1.219.313 1.419.313 7.637 0 6.294 0 6.325-.337 7.637-.587 2.288-1.956 3.656-4.244 4.244-1.313.337-1.344.337-7.637.337-6.219 0-6.419-.006-7.637-.313-2.787-.688-4.188-2.387-4.625-5.587-.119-.869-.119-11.894 0-12.762.438-3.2 1.838-4.9 4.625-5.588a9.71 9.71 0 0 1 1.162-.212l.756-.094c.106-.013 2.787-.019 5.969-.006 4.988.013 5.856.025 6.344.112z"/><path d="M21.7 11.825c-.106.081-.919 1.069-1.794 2.206-.881 1.131-1.65 2.087-1.719 2.119-.15.069-.125.087-1.656-1.119-1.537-1.213-1.725-1.313-2.531-1.313-.544 0-.631.019-1 .2a2.837 2.837 0 0 0-.662.469c-.406.425-3.406 4.369-3.506 4.6-.338.813.7 1.675 1.419 1.181.119-.075.956-1.106 1.869-2.294 1.481-1.919 1.688-2.156 1.85-2.169.156-.012.4.15 1.5 1.019 1.544 1.225 1.788 1.356 2.531 1.387.606.025 1.038-.1 1.488-.431.156-.119.931-1.056 1.95-2.369 1.913-2.469 1.938-2.519 1.681-3.037-.2-.406-.475-.588-.894-.588-.231 0-.375.037-.525.137z"/></symbol><symbol id="twitter" viewBox="0 0 32 32"><path d="M32 7.075a12.941 12.941 0 0 1-3.769 1.031 6.601 6.601 0 0 0 2.887-3.631 13.21 13.21 0 0 1-4.169 1.594A6.565 6.565 0 0 0 22.155 4a6.563 6.563 0 0 0-6.563 6.563c0 .512.056 1.012.169 1.494A18.635 18.635 0 0 1 2.23 5.195a6.56 6.56 0 0 0-.887 3.3 6.557 6.557 0 0 0 2.919 5.463 6.565 6.565 0 0 1-2.975-.819v.081a6.565 6.565 0 0 0 5.269 6.437 6.574 6.574 0 0 1-2.968.112 6.588 6.588 0 0 0 6.131 4.563 13.17 13.17 0 0 1-9.725 2.719 18.568 18.568 0 0 0 10.069 2.95c12.075 0 18.681-10.006 18.681-18.681 0-.287-.006-.569-.019-.85A13.216 13.216 0 0 0 32 7.076z"/></symbol><symbol id="search1" viewBox="0 0 32 32"><path d="m31.008 27.231-7.58-6.447c-.784-.705-1.622-1.029-2.299-.998a11.954 11.954 0 0 0 2.87-7.787c0-6.627-5.373-12-12-12s-12 5.373-12 12 5.373 12 12 12c2.972 0 5.691-1.081 7.787-2.87-.031.677.293 1.515.998 2.299l6.447 7.58c1.104 1.226 2.907 1.33 4.007.23s.997-2.903-.23-4.007zM12 20a8 8 0 1 1 0-16 8 8 0 0 1 0 16z"/></symbol><symbol id="facebook1" viewBox="0 0 32 32"><path d="M19 6h5V0h-5c-3.86 0-7 3.14-7 7v3H8v6h4v16h6V16h5l1-6h-6V7c0-.542.458-1 1-1z"/></symbol><symbol id="twitter1" viewBox="0 0 32 32"><path d="M32 7.075a12.941 12.941 0 0 1-3.769 1.031 6.601 6.601 0 0 0 2.887-3.631 13.21 13.21 0 0 1-4.169 1.594A6.565 6.565 0 0 0 22.155 4a6.563 6.563 0 0 0-6.563 6.563c0 .512.056 1.012.169 1.494A18.635 18.635 0 0 1 2.23 5.195a6.56 6.56 0 0 0-.887 3.3 6.557 6.557 0 0 0 2.919 5.463 6.565 6.565 0 0 1-2.975-.819v.081a6.565 6.565 0 0 0 5.269 6.437 6.574 6.574 0 0 1-2.968.112 6.588 6.588 0 0 0 6.131 4.563 13.17 13.17 0 0 1-9.725 2.719 18.568 18.568 0 0 0 10.069 2.95c12.075 0 18.681-10.006 18.681-18.681 0-.287-.006-.569-.019-.85A13.216 13.216 0 0 0 32 7.076z"/></symbol></defs></svg>